<svg width="24" height="24" fill="none" xmlns="http://www.w3.org/2000/svg"><g clip-path="url(#clip0_1664_1940)"><path d="M16.33 13.5A6.99 6.99 0 0019 8h2a8.987 8.987 0 01-3.662 7.246l2.528 4.378a2 2 0 01-.732 2.732l-3.527-6.108A8.97 8.97 0 0112 17a8.97 8.97 0 01-3.607-.752l-3.527 6.108a2 2 0 01-.732-2.732l5.063-8.77A4.002 4.002 0 0111 4.126V2h2v2.126a4.003 4.003 0 011.803 6.728L16.33 13.5zm-1.73 1.002l-1.528-2.647c-.7.194-1.441.194-2.142 0l-1.528 2.647a6.99 6.99 0 002.6.498c.917 0 1.794-.177 2.598-.498zM12 10a2 2 0 100-4 2 2 0 000 4z" fill="#1C40F2"/></g><defs><clipPath id="clip0_1664_1940"><path fill="#fff" d="M0 0h24v24H0z"/></clipPath></defs></svg>