<svg width="35" height="41" fill="none" xmlns="http://www.w3.org/2000/svg"><g clip-path="url(#clip0_1752_2075)"><path d="M25.66 23A13.976 13.976 0 0031 12h4a17.975 17.975 0 01-7.324 14.492l5.056 8.756a4 4 0 01-1.464 5.464l-7.054-12.216A17.94 17.94 0 0117 30a17.94 17.94 0 01-7.214-1.504L2.732 40.712a4 4 0 01-1.464-5.464l10.126-17.54A8.003 8.003 0 0115 4.252V0h4v4.252a8.004 8.004 0 013.606 13.456L25.66 23zm-3.46 2.004l-3.056-5.294a8.007 8.007 0 01-4.284 0l-3.056 5.294a13.98 13.98 0 005.198.996c1.836 0 3.59-.354 5.198-.996zM17 16a4 4 0 100-8 4 4 0 000 8z" fill="#1C40F2"/></g><defs><clipPath id="clip0_1752_2075"><path fill="#fff" d="M0 0h35v41H0z"/></clipPath></defs></svg>